<svg width="28" height="32" viewBox="0 0 28 32" fill="none" xmlns="http://www.w3.org/2000/svg">
<path d="M18.9943 30.4618C18.0676 30.957 17.0453 31.3595 15.913 31.6578C12.6247 32.4484 9.32625 31.8315 6.65476 30.1953C6.31159 29.9854 5.97712 29.7581 5.65567 29.5134C5.54562 29.4294 5.51956 29.2744 5.59196 29.1557C5.59196 29.1557 5.59196 29.1557 5.59196 29.1543C6.13494 28.2507 6.47232 27.2574 6.81838 26.325C7.27594 25.0536 7.79865 23.5275 8.32136 22.3387C8.67322 21.5221 9.06272 20.7561 9.48118 20.1378C9.81421 19.647 10.2081 19.1822 10.6555 18.9389C11.546 18.4683 12.8303 19.3559 13.5861 19.9119C15.5858 21.4613 18.6323 22.8108 20.7782 20.6837C22.2131 19.1865 22.4839 17.0175 22.5664 15.0714C22.604 13.9159 22.5302 12.7605 22.3941 11.618C22.3666 11.3921 22.0437 11.3762 21.9945 11.5977C21.9655 11.7266 21.938 11.8555 21.9076 11.9844C21.5702 13.4294 20.2164 19.6209 18.1009 18.7101C17.2871 18.4032 16.4937 17.6531 15.8537 17.0044C15.1905 16.3557 14.5273 15.8142 13.6629 15.3451C11.5373 14.1635 9.0743 14.4068 7.19775 15.9605C4.56825 18.1614 3.36065 21.5583 2.15885 24.5816V24.586C2.09513 24.7496 1.86491 24.7554 1.79685 24.5946C1.52609 23.9648 1.30455 23.3045 1.13948 22.6138C-0.441692 16.0357 3.60825 9.42291 10.1849 7.84174C10.1849 7.84174 20.351 5.53659 24.9758 0.21678C25.319 -0.178514 25.9662 -0.00475838 26.069 0.50782C27.1072 5.70021 30.0205 24.5584 18.9928 30.4618H18.9943Z" fill="#08A045"/>
</svg>
